/* XPM */
static char * bullet_xpm[] = {
"19 19 6 1",
" 	c None",
".	c #FDCA00",
"+	c #EFC107",
"@	c #FCC900",
"#	c #FAC801",
"$	c #E2B80E",
"                   ",
"                   ",
"                   ",
"                   ",
"                   ",
"                   ",
"            .      ",
"            .+     ",
"            ....   ",
"            ...@   ",
"            ..#    ",
"            .$     ",
"                   ",
"                   ",
"                   ",
"                   ",
"                   ",
"                   ",
"                   "};
