/* XPM */
static char * bullet_hilite_xpm[] = {
"19 19 8 1",
" 	c None",
".	c #000000",
"+	c #0D0A00",
"@	c #010000",
"#	c #090800",
"$	c #080600",
"%	c #181200",
"&	c #030200",
"                   ",
"                   ",
"                   ",
"                   ",
"                   ",
"                   ",
"            .      ",
"            ..+    ",
"            ...@   ",
"            ....#  ",
"            ...$   ",
"            ..%    ",
"            &      ",
"                   ",
"                   ",
"                   ",
"                   ",
"                   ",
"                   "};
