/* XPM */
static char * min_xpm[] = {
"19 19 52 1",
" 	c None",
".	c #24221E",
"+	c #24231E",
"@	c #24231F",
"#	c #24221F",
"$	c #231F1C",
"%	c #221F1B",
"&	c #221F1C",
"*	c #23201C",
"=	c #22201C",
"-	c #1E1C18",
";	c #1E1C19",
">	c #1A1915",
",	c #1B1915",
"'	c #161612",
")	c #171511",
"!	c #171512",
"~	c #161512",
"{	c #FDCA00",
"]	c #161611",
"^	c #13110E",
"/	c #0F0D0A",
"(	c #0B0A07",
"_	c #0B0A06",
":	c #0C0A07",
"<	c #0C0A06",
"[	c #0C0906",
"}	c #080605",
"|	c #080604",
"1	c #080704",
"2	c #080705",
"3	c #080603",
"4	c #070603",
"5	c #070604",
"6	c #060603",
"7	c #060503",
"8	c #070503",
"9	c #050502",
"0	c #050403",
"a	c #050402",
"b	c #040301",
"c	c #040302",
"d	c #030301",
"e	c #030302",
"f	c #030201",
"g	c #020201",
"h	c #010101",
"i	c #020101",
"j	c #020100",
"k	c #010000",
"l	c #010100",
"m	c #000000",
"...+.@+.+#+##++.#.+",
"$$%&$%&*=*&=&%$&*&=",
"------------------;",
">,>,>,,>,,,,,>>>,,,",
"')!~~{{{{{{{{{{]]~~",
"^^^^^{{{{{{{{{{^^^^",
"///////////////////",
"(((_:_((:(((_<[(_::",
"}||1111|1|211111111",
"3333333433543|34343",
"6477788864788776874",
"7777777777777777777",
"90{{{{{{{{{{{{{{{{a",
"bc{{{{{{{{{{{{{{{{c",
"ddedddddddddddedbdd",
"fgggffffgffffffffff",
"hihhiihihhjhjhiiiji",
"kkllkllllllllllllll",
"mmmmmmmmmmmmmmmmmmm"};
