/* XPM */
static char * pressed_xpm[] = {
"19 19 48 1",
" 	c None",
".	c #24221E",
"+	c #24231E",
"@	c #24231F",
"#	c #24221F",
"$	c #231F1C",
"%	c #221F1B",
"&	c #221F1C",
"*	c #23201C",
"=	c #22201C",
"-	c #1E1C18",
";	c #1E1C19",
">	c #1A1915",
",	c #1B1915",
"'	c #FDCA00",
")	c #161612",
"!	c #171511",
"~	c #171512",
"{	c #161512",
"]	c #161611",
"^	c #13110E",
"/	c #0F0D0A",
"(	c #0B0A07",
"_	c #0B0A06",
":	c #0C0A07",
"<	c #080605",
"[	c #080604",
"}	c #080704",
"|	c #080603",
"1	c #070603",
"2	c #060603",
"3	c #060503",
"4	c #070503",
"5	c #050502",
"6	c #050403",
"7	c #050402",
"8	c #040301",
"9	c #040302",
"0	c #030301",
"a	c #030302",
"b	c #030201",
"c	c #020201",
"d	c #010101",
"e	c #020101",
"f	c #020100",
"g	c #010000",
"h	c #010100",
"i	c #000000",
"...+.@+.+#+##++.#.+",
"$$%&$%&*=*&=&%$&*&=",
"------------------;",
">,>,'''''''''''',,,",
")!~{'''''''''''']{{",
"^^^^''''''''''''^^^",
"////''''''''''''///",
"(((_''''''''''''_::",
"<[[}''''''''''''}}}",
"||||''''''''''''|1|",
"2133''''''''''''431",
"3333''''''''''''333",
"5666''''''''''''777",
"8999''''''''''''899",
"00a0''''''''''''800",
"bccc''''''''''''bbb",
"deddeededdfdfdeeefe",
"gghhghhhhhhhhhhhhhh",
"iiiiiiiiiiiiiiiiiii"};
