/* XPM */
static char * stick_xpm[] = {
"19 19 55 1",
" 	c None",
".	c #24221E",
"+	c #24231E",
"@	c #24231F",
"#	c #24221F",
"$	c #231F1C",
"%	c #221F1B",
"&	c #221F1C",
"*	c #23201C",
"=	c #22201C",
"-	c #1E1C18",
";	c #1E1C19",
">	c #1A1915",
",	c #1B1915",
"'	c #161612",
")	c #171511",
"!	c #171512",
"~	c #161512",
"{	c #161511",
"]	c #161611",
"^	c #13110E",
"/	c #13100E",
"(	c #0F0D0A",
"_	c #0B0A07",
":	c #0B0A06",
"<	c #0C0A07",
"[	c #0C0A06",
"}	c #0C0906",
"|	c #FDCA00",
"1	c #080704",
"2	c #080603",
"3	c #080604",
"4	c #070603",
"5	c #070503",
"6	c #060503",
"7	c #060603",
"8	c #050502",
"9	c #050403",
"0	c #050402",
"a	c #050503",
"b	c #040301",
"c	c #040302",
"d	c #040402",
"e	c #050302",
"f	c #050401",
"g	c #030301",
"h	c #030302",
"i	c #030201",
"j	c #020201",
"k	c #010101",
"l	c #020101",
"m	c #020100",
"n	c #010000",
"o	c #010100",
"p	c #000000",
"...+.@+.+#+##++.#.+",
"$$%&$%&*=*&=&%$&*&=",
"------------------;",
">,>,>,,>,,,,,>>>,,,",
"')!~~~~'{]~!{!!]]~~",
"^^^^^^//^^^^^^^^^^^",
"(((((((((((((((((((",
"___:<:__<___:[}_:<<",
"||||||||||||1111111",
"||||||||||||2324242",
"||||||||||||5667564",
"||||||||||||6666666",
"8999800008a88a98000",
"bccccc0ccdef0ccebcc",
"gghggggggggggghgbgg",
"ijjjiiiijiiiiiiiiii",
"klkkllklkkmkmklllml",
"nnoonoooooooooooooo",
"ppppppppppppppppppp"};
