/* XPM */
static char * stuck_xpm[] = {
"19 19 179 2",
"  	c None",
". 	c #24221E",
"+ 	c #24231E",
"@ 	c #24231F",
"# 	c #24221F",
"$ 	c #231F1C",
"% 	c #221F1B",
"& 	c #221F1C",
"* 	c #322B18",
"= 	c #28231B",
"- 	c #23201C",
"; 	c #22201C",
"> 	c #322B19",
", 	c #1E1C18",
"' 	c #9B7E0A",
") 	c #9D7F0A",
"! 	c #232017",
"~ 	c #FCC900",
"{ 	c #403714",
"] 	c #1E1C19",
"^ 	c #1A1915",
"/ 	c #1B1915",
"( 	c #9A7C09",
"_ 	c #886F0A",
": 	c #332C12",
"< 	c #C8A104",
"[ 	c #CDA404",
"} 	c #FDCA00",
"| 	c #C9A104",
"1 	c #856C0B",
"2 	c #161612",
"3 	c #171511",
"4 	c #171512",
"5 	c #161512",
"6 	c #987B07",
"7 	c #866D09",
"8 	c #1F1C10",
"9 	c #57480C",
"0 	c #836A09",
"a 	c #DEB102",
"b 	c #3D350E",
"c 	c #13110E",
"d 	c #332A0C",
"e 	c #AD8A04",
"f 	c #DBAF02",
"g 	c #D4A902",
"h 	c #342B0B",
"i 	c #7B6307",
"j 	c #937606",
"k 	c #BA9503",
"l 	c #DFB201",
"m 	c #2F270C",
"n 	c #0F0D0A",
"o 	c #211B09",
"p 	c #685406",
"q 	c #846A05",
"r 	c #C59D02",
"s 	c #221C09",
"t 	c #705A05",
"u 	c #866B04",
"v 	c #DEB101",
"w 	c #BD9702",
"x 	c #FAC700",
"y 	c #876C04",
"z 	c #292108",
"A 	c #0B0A07",
"B 	c #0B0A06",
"C 	c #685304",
"D 	c #FBC800",
"E 	c #3F3305",
"F 	c #4F3F05",
"G 	c #534304",
"H 	c #544304",
"I 	c #EFBF00",
"J 	c #735C03",
"K 	c #F2C100",
"L 	c #6C5603",
"M 	c #282006",
"N 	c #0C0A07",
"O 	c #080605",
"P 	c #080604",
"Q 	c #080704",
"R 	c #A28201",
"S 	c #F8C600",
"T 	c #DEB100",
"U 	c #C69E00",
"V 	c #B38F01",
"W 	c #C09900",
"X 	c #E4B600",
"Y 	c #D6AB00",
"Z 	c #504002",
"` 	c #080603",
" .	c #0C0902",
"..	c #EBBC00",
"+.	c #B99400",
"@.	c #846901",
"#.	c #E6B800",
"$.	c #392D02",
"%.	c #161102",
"&.	c #483A02",
"*.	c #221B02",
"=.	c #1D1603",
"-.	c #E8B900",
";.	c #453702",
">.	c #070603",
",.	c #060603",
"'.	c #060503",
").	c #4C3D02",
"!.	c #D3A800",
"~.	c #927501",
"{.	c #7E6401",
"].	c #3E3102",
"^.	c #120F02",
"/.	c #B28E00",
"(.	c #A88601",
"_.	c #0E0B02",
":.	c #CDA400",
"<.	c #5F4C01",
"[.	c #514102",
"}.	c #ECBC00",
"|.	c #514002",
"1.	c #B79200",
"2.	c #715A01",
"3.	c #917401",
"4.	c #1C1602",
"5.	c #BD9700",
"6.	c #DFB200",
"7.	c #251E02",
"8.	c #050502",
"9.	c #050403",
"0.	c #EABB00",
"a.	c #100E01",
"b.	c #917300",
"c.	c #7D6401",
"d.	c #090701",
"e.	c #655001",
"f.	c #0C0B01",
"g.	c #080802",
"h.	c #080801",
"i.	c #CCA300",
"j.	c #463802",
"k.	c #080702",
"l.	c #050401",
"m.	c #050402",
"n.	c #040301",
"o.	c #040302",
"p.	c #9E7E00",
"q.	c #6C5601",
"r.	c #907300",
"s.	c #403301",
"t.	c #BB9500",
"u.	c #F1C000",
"v.	c #CCA200",
"w.	c #4F3F01",
"x.	c #030301",
"y.	c #030300",
"z.	c #7C6300",
"A.	c #1B1600",
"B.	c #4D3E00",
"C.	c #DAAE00",
"D.	c #796100",
"E.	c #4D3E01",
"F.	c #4E3E00",
"G.	c #211B00",
"H.	c #030201",
"I.	c #020201",
"J.	c #907200",
"K.	c #CBA200",
"L.	c #413400",
"M.	c #010101",
"N.	c #020101",
"O.	c #5F4B00",
"P.	c #524100",
"Q.	c #020100",
"R.	c #856A00",
"S.	c #2A2200",
"T.	c #010000",
"U.	c #010100",
"V.	c #000000",
". . . + . @ + . + # + # # + + . # . + ",
"$ $ % & $ * = - ; - & ; > % $ & - & ; ",
", , , , , ' ) , , , , ! ~ { , , , , ] ",
"^ / ^ / ^ ( _ ^ : < < [ } | < < 1 / / ",
"2 3 4 5 5 6 7 2 8 9 9 0 a 9 9 9 b 5 5 ",
"c c d e e f g e h i j k l j j j m c c ",
"n n o p q } r p s t u v w x y u z n n ",
"A A A B C } D E F G H I J K L G G M N ",
"O P P Q R S T U V W X X W Y K W W Z Q ",
"` ` `  ...+.@.#.$.%.X &.*.=.-.;.` >.` ",
",.>.'.).!.~.{.].^./.(._.:.<.[.}.|.'.>.",
"'.'.'.1.2.3.{.4.5.6.} } } } } } X 7.'.",
"8.9.$.0.a.b.c.d.e.f.g.h.i.j.k.h.l.m.m.",
"n.o.p.q.o.r.c.o.s.t.t.t.u.v.t.t.t.w.o.",
"x.x.x.y.x.r.z.x.A.B.B.B.C.D.E.B.F.G.x.",
"H.I.I.I.H.J.z.H.I.H.H.H.K.L.H.H.H.H.H.",
"M.N.M.M.N.O.P.N.M.M.Q.M.R.S.N.N.N.Q.N.",
"T.T.U.U.T.U.U.U.U.U.U.U.U.U.U.U.U.U.U.",
"V.V.V.V.V.V.V.V.V.V.V.V.V.V.V.V.V.V.V."};
