/* XPM */
static char * toolbar_xpm[] = {
"19 19 57 1",
" 	c None",
".	c #24221E",
"+	c #24231E",
"@	c #24231F",
"#	c #24221F",
"$	c #231F1C",
"%	c #221F1B",
"&	c #221F1C",
"*	c #23201C",
"=	c #22201C",
"-	c #1E1C18",
";	c #1E1C19",
">	c #1A1915",
",	c #1B1915",
"'	c #161612",
")	c #171511",
"!	c #171512",
"~	c #161512",
"{	c #161511",
"]	c #161611",
"^	c #13110E",
"/	c #13100E",
"(	c #0F0D0A",
"_	c #0B0A07",
":	c #0B0A06",
"<	c #0C0A07",
"[	c #0C0A06",
"}	c #0C0906",
"|	c #080605",
"1	c #080604",
"2	c #080704",
"3	c #080705",
"4	c #080603",
"5	c #070603",
"6	c #070604",
"7	c #060603",
"8	c #060503",
"9	c #070503",
"0	c #050502",
"a	c #050403",
"b	c #050402",
"c	c #050503",
"d	c #040301",
"e	c #040302",
"f	c #040402",
"g	c #050302",
"h	c #050401",
"i	c #030301",
"j	c #030302",
"k	c #030201",
"l	c #020201",
"m	c #010101",
"n	c #020101",
"o	c #020100",
"p	c #010000",
"q	c #010100",
"r	c #000000",
"...+.@+.+#+##++.#.+",
"$$%&$%&*=*&=&%$&*&=",
"------------------;",
">,>,>,,>,,,,,>>>,,,",
"')!~~~~'{]~!{!!]]~~",
"^^^^^^//^^^^^^^^^^^",
"(((((((((((((((((((",
"___:<:__<___:[}_:<<",
"|112222121322222222",
"4444444544654145454",
"7588899975899887985",
"8888888888888888888",
"0aaa0bbbb0c00ca0bbb",
"deeeeebeefghbeegdee",
"iijiiiiiiiiiiijidii",
"klllkkkklkkkkkkkkkk",
"mnmmnnmnmmomomnnnon",
"ppqqpqqqqqqqqqqqqqq",
"rrrrrrrrrrrrrrrrrrr"};
