/* XPM */
static char * close_xpm[] = {
"19 19 135 2",
"  	c None",
". 	c #24221E",
"+ 	c #24231E",
"@ 	c #24231F",
"# 	c #24221F",
"$ 	c #231F1C",
"% 	c #221F1B",
"& 	c #221F1C",
"* 	c #94780D",
"= 	c #3A3218",
"- 	c #23201C",
"; 	c #22201C",
"> 	c #1E1C18",
", 	c #E8BA02",
"' 	c #C39D06",
") 	c #423814",
"! 	c #1E1C17",
"~ 	c #1E1C19",
"{ 	c #1A1915",
"] 	c #1B1915",
"^ 	c #D2A804",
"/ 	c #FECB00",
"( 	c #66530E",
"_ 	c #312B12",
": 	c #7C660B",
"< 	c #161612",
"[ 	c #171511",
"} 	c #171512",
"| 	c #161512",
"1 	c #6A570B",
"2 	c #E9BA01",
"3 	c #FDCA00",
"4 	c #A88806",
"5 	c #7C6509",
"6 	c #8B7008",
"7 	c #836A08",
"8 	c #BA9505",
"9 	c #F3C200",
"0 	c #161611",
"a 	c #13110E",
"b 	c #1E190D",
"c 	c #755E08",
"d 	c #7D6507",
"e 	c #786107",
"f 	c #DAAE02",
"g 	c #A88704",
"h 	c #AF8D04",
"i 	c #AF8C04",
"j 	c #846A07",
"k 	c #0F0D0A",
"l 	c #2F2708",
"m 	c #B89302",
"n 	c #B99402",
"o 	c #A98703",
"p 	c #A18103",
"q 	c #E6B800",
"r 	c #6F5905",
"s 	c #0F0D09",
"t 	c #0B0A07",
"u 	c #211B06",
"v 	c #AC8A02",
"w 	c #0C0A07",
"x 	c #0B0A06",
"y 	c #BA9401",
"z 	c #765F03",
"A 	c #0C0A06",
"B 	c #0C0906",
"C 	c #080605",
"D 	c #080604",
"E 	c #080704",
"F 	c #BC9601",
"G 	c #6F5902",
"H 	c #1B1603",
"I 	c #514102",
"J 	c #4B3C02",
"K 	c #4C3D02",
"L 	c #483A02",
"M 	c #080603",
"N 	c #3B2E02",
"O 	c #352B02",
"P 	c #CCA300",
"Q 	c #937601",
"R 	c #2C2302",
"S 	c #FECA00",
"T 	c #070603",
"U 	c #060603",
"V 	c #110E02",
"W 	c #3F3202",
"X 	c #372C02",
"Y 	c #3C3002",
"Z 	c #372B02",
"` 	c #FAC700",
" .	c #D3A800",
"..	c #CAA100",
"+.	c #CBA200",
"@.	c #CEA400",
"#.	c #C29B00",
"$.	c #060503",
"%.	c #302702",
"&.	c #F8C600",
"*.	c #E4B600",
"=.	c #E5B700",
"-.	c #D6AB00",
";.	c #D4A900",
">.	c #D2A800",
",.	c #EFBF00",
"'.	c #836901",
").	c #050502",
"!.	c #050403",
"~.	c #131002",
"{.	c #D9AD00",
"].	c #050402",
"^.	c #A18100",
"/.	c #8B6F00",
"(.	c #050503",
"_.	c #040301",
":.	c #040302",
"<.	c #A88600",
"[.	c #8A6E00",
"}.	c #050302",
"|.	c #030301",
"1.	c #030302",
"2.	c #997A00",
"3.	c #947600",
"4.	c #030201",
"5.	c #020201",
"6.	c #020200",
"7.	c #896D00",
"8.	c #010101",
"9.	c #020101",
"0.	c #9F7E00",
"a.	c #020100",
"b.	c #010000",
"c.	c #010100",
"d.	c #000000",
". . . + . @ + . + # + # # + + . # . + ",
"$ $ % & $ % & * = - % ; & % $ & - & ; ",
"> > > > > > > , ' ) > > ! > > ! > > ~ ",
"{ ] { ] { ] ] ^ / ( ] ] ] _ : { ] ] ] ",
"< [ } | | | 1 2 3 4 5 6 7 8 9 0 0 | | ",
"a a b c d e 3 3 3 3 f g h i j a a a a ",
"k k l 3 m n o p q / r k k k k s k k k ",
"t t u v w x t t y / z t x A B t x w w ",
"C D D E E E E D F / G E H I J K L E E ",
"M M M M M M N O P / Q R Q S 3 S / T M ",
"U V W X Y Z 3 / 3 3 3 `  ...+.@.#.$.T ",
"$.%.&.3 *.=.-.;.>.,.3 '.$.$.$.$.$.$.$.",
").!.~.{.).].].].].^.S /.).(.!.).].].].",
"_.:.:.:.:.:.].:.:.<.S [.].:.:.}._.:.:.",
"|.|.1.|.|.|.|.|.|.2.S 3.|.|.1.|._.|.|.",
"4.5.5.5.4.4.4.4.6.4.7./ <.4.4.4.4.4.4.",
"8.9.8.8.9.9.8.9.8.8.[./ 0.8.9.9.9.a.9.",
"b.b.c.c.b.c.c.c.c.c.c.c.c.c.c.c.c.c.c.",
"d.d.d.d.d.d.d.d.d.d.d.d.d.d.d.d.d.d.d."};
