/* XPM */
static char * max_xpm[] = {
"19 19 51 1",
" 	c None",
".	c #24221E",
"+	c #24231E",
"@	c #24231F",
"#	c #24221F",
"$	c #231F1C",
"%	c #221F1B",
"&	c #221F1C",
"*	c #23201C",
"=	c #22201C",
"-	c #1E1C18",
";	c #1E1C19",
">	c #1A1915",
",	c #1B1915",
"'	c #161612",
")	c #171511",
"!	c #171512",
"~	c #161512",
"{	c #FDCA00",
"]	c #161611",
"^	c #13110E",
"/	c #0F0D0A",
"(	c #0B0A07",
"_	c #0B0A06",
":	c #0C0A07",
"<	c #0C0A06",
"[	c #080605",
"}	c #080604",
"|	c #080704",
"1	c #080705",
"2	c #080603",
"3	c #070603",
"4	c #070604",
"5	c #060603",
"6	c #060503",
"7	c #070503",
"8	c #050502",
"9	c #050403",
"0	c #050402",
"a	c #040301",
"b	c #040302",
"c	c #030301",
"d	c #030302",
"e	c #030201",
"f	c #020201",
"g	c #010101",
"h	c #020101",
"i	c #020100",
"j	c #010000",
"k	c #010100",
"l	c #000000",
"...+.@+.+#+##++.#.+",
"$$%&$%&*=*&=&%$&*&=",
"------------------;",
">,>,>,,>,,,,,>>>,,,",
"')!~{{{{{{{{{{{{]~~",
"^^^^{{{{{{{{{{{{^^^",
"////{{////////{{///",
"(((_{{((:(((_<{{_::",
"[}}|{{|}|}1|||{{|||",
"2222{{2322432}{{232",
"5366{{77536776{{763",
"6666{{66666666{{666",
"8999{{{{{{{{{{{{000",
"abbb{{{{{{{{{{{{abb",
"ccdc{{cccccccc{{acc",
"efffeeeefeeeeeeeeee",
"ghgghhghggigighhhih",
"jjkkjkkkkkkkkkkkkkk",
"lllllllllllllllllll"};
