/* XPM */
static char * select_hilite_xpm[] = {
"19 19 2 1",
" 	c None",
".	c #FDCA00",
"                   ",
"                   ",
"                   ",
"                   ",
"                   ",
"                   ",
"                   ",
"          ......   ",
"          ......   ",
"          ......   ",
"          ......   ",
"          ......   ",
"          ......   ",
"                   ",
"                   ",
"                   ",
"                   ",
"                   ",
"                   "};
